<mxfile host="app.diagrams.net" modified="2023-09-22T03:28:53.347Z" agent="Mozilla/5.0 (Windows NT 10.0; Win64; x64) AppleWebKit/537.36 (KHTML, like Gecko) Chrome/116.0.0.0 Safari/537.36" etag="WOnowFL4KYyt2F7Jr1sb" version="21.8.0" type="github">
  <diagram name="第 1 页" id="IKaCBXfsDQhz7CGjY_Ax">
    <mxGraphModel dx="1434" dy="790" grid="1" gridSize="10" guides="1" tooltips="1" connect="1" arrows="1" fold="1" page="1" pageScale="1" pageWidth="827" pageHeight="1169" math="0" shadow="0">
      <root>
        <mxCell id="0" />
        <mxCell id="1" parent="0" />
        <mxCell id="kpe-mg8orcH3nQAzpP4w-1" value="User" style="swimlane;fontStyle=1;align=center;verticalAlign=top;childLayout=stackLayout;horizontal=1;startSize=32;horizontalStack=0;resizeParent=1;resizeParentMax=0;resizeLast=0;collapsible=0;marginBottom=0;" vertex="1" parent="1">
          <mxGeometry x="72" y="20" width="156" height="104" as="geometry" />
        </mxCell>
        <mxCell id="kpe-mg8orcH3nQAzpP4w-2" value="-name: String" style="text;strokeColor=none;fillColor=none;align=left;verticalAlign=top;spacingLeft=4;spacingRight=4;overflow=hidden;rotatable=0;points=[[0,0.5],[1,0.5]];portConstraint=eastwest;" vertex="1" parent="kpe-mg8orcH3nQAzpP4w-1">
          <mxGeometry y="32" width="156" height="32" as="geometry" />
        </mxCell>
        <mxCell id="kpe-mg8orcH3nQAzpP4w-3" style="line;strokeWidth=1;fillColor=none;align=left;verticalAlign=middle;spacingTop=-1;spacingLeft=3;spacingRight=3;rotatable=0;labelPosition=right;points=[];portConstraint=eastwest;strokeColor=inherit;" vertex="1" parent="kpe-mg8orcH3nQAzpP4w-1">
          <mxGeometry y="64" width="156" height="8" as="geometry" />
        </mxCell>
        <mxCell id="kpe-mg8orcH3nQAzpP4w-4" value="+getName(): String" style="text;strokeColor=none;fillColor=none;align=left;verticalAlign=top;spacingLeft=4;spacingRight=4;overflow=hidden;rotatable=0;points=[[0,0.5],[1,0.5]];portConstraint=eastwest;" vertex="1" parent="kpe-mg8orcH3nQAzpP4w-1">
          <mxGeometry y="72" width="156" height="32" as="geometry" />
        </mxCell>
        <mxCell id="kpe-mg8orcH3nQAzpP4w-5" value="SyncService" style="swimlane;fontStyle=1;align=center;verticalAlign=top;childLayout=stackLayout;horizontal=1;startSize=26.444444444444443;horizontalStack=0;resizeParent=1;resizeParentMax=0;resizeLast=0;collapsible=0;marginBottom=0;" vertex="1" parent="1">
          <mxGeometry x="20" y="193" width="260" height="112.44444444444444" as="geometry" />
        </mxCell>
        <mxCell id="kpe-mg8orcH3nQAzpP4w-6" style="line;strokeWidth=1;fillColor=none;align=left;verticalAlign=middle;spacingTop=-1;spacingLeft=3;spacingRight=3;rotatable=0;labelPosition=right;points=[];portConstraint=eastwest;strokeColor=inherit;" vertex="1" parent="kpe-mg8orcH3nQAzpP4w-5">
          <mxGeometry y="26.444444444444443" width="260" height="8" as="geometry" />
        </mxCell>
        <mxCell id="kpe-mg8orcH3nQAzpP4w-7" value="+startSync(): void" style="text;strokeColor=none;fillColor=none;align=left;verticalAlign=top;spacingLeft=4;spacingRight=4;overflow=hidden;rotatable=0;points=[[0,0.5],[1,0.5]];portConstraint=eastwest;" vertex="1" parent="kpe-mg8orcH3nQAzpP4w-5">
          <mxGeometry y="34.44444444444444" width="260" height="26" as="geometry" />
        </mxCell>
        <mxCell id="kpe-mg8orcH3nQAzpP4w-8" value="+stopSync(): void" style="text;strokeColor=none;fillColor=none;align=left;verticalAlign=top;spacingLeft=4;spacingRight=4;overflow=hidden;rotatable=0;points=[[0,0.5],[1,0.5]];portConstraint=eastwest;" vertex="1" parent="kpe-mg8orcH3nQAzpP4w-5">
          <mxGeometry y="60.44444444444444" width="260" height="26" as="geometry" />
        </mxCell>
        <mxCell id="kpe-mg8orcH3nQAzpP4w-9" value="+syncData(data: AudioData): void" style="text;strokeColor=none;fillColor=none;align=left;verticalAlign=top;spacingLeft=4;spacingRight=4;overflow=hidden;rotatable=0;points=[[0,0.5],[1,0.5]];portConstraint=eastwest;" vertex="1" parent="kpe-mg8orcH3nQAzpP4w-5">
          <mxGeometry y="86.44444444444444" width="260" height="26" as="geometry" />
        </mxCell>
        <mxCell id="kpe-mg8orcH3nQAzpP4w-10" value="AudioData" style="swimlane;fontStyle=1;align=center;verticalAlign=top;childLayout=stackLayout;horizontal=1;startSize=32;horizontalStack=0;resizeParent=1;resizeParentMax=0;resizeLast=0;collapsible=0;marginBottom=0;" vertex="1" parent="1">
          <mxGeometry x="76" y="389" width="148" height="104" as="geometry" />
        </mxCell>
        <mxCell id="kpe-mg8orcH3nQAzpP4w-11" value="-data: String" style="text;strokeColor=none;fillColor=none;align=left;verticalAlign=top;spacingLeft=4;spacingRight=4;overflow=hidden;rotatable=0;points=[[0,0.5],[1,0.5]];portConstraint=eastwest;" vertex="1" parent="kpe-mg8orcH3nQAzpP4w-10">
          <mxGeometry y="32" width="148" height="32" as="geometry" />
        </mxCell>
        <mxCell id="kpe-mg8orcH3nQAzpP4w-12" style="line;strokeWidth=1;fillColor=none;align=left;verticalAlign=middle;spacingTop=-1;spacingLeft=3;spacingRight=3;rotatable=0;labelPosition=right;points=[];portConstraint=eastwest;strokeColor=inherit;" vertex="1" parent="kpe-mg8orcH3nQAzpP4w-10">
          <mxGeometry y="64" width="148" height="8" as="geometry" />
        </mxCell>
        <mxCell id="kpe-mg8orcH3nQAzpP4w-13" value="+getData(): String" style="text;strokeColor=none;fillColor=none;align=left;verticalAlign=top;spacingLeft=4;spacingRight=4;overflow=hidden;rotatable=0;points=[[0,0.5],[1,0.5]];portConstraint=eastwest;" vertex="1" parent="kpe-mg8orcH3nQAzpP4w-10">
          <mxGeometry y="72" width="148" height="32" as="geometry" />
        </mxCell>
        <mxCell id="kpe-mg8orcH3nQAzpP4w-14" value="使用" style="curved=1;startArrow=none;endArrow=open;endSize=12;exitX=0.49914863782051283;exitY=1;entryX=0.4994891826923077;entryY=0;rounded=0;" edge="1" parent="1" source="kpe-mg8orcH3nQAzpP4w-1" target="kpe-mg8orcH3nQAzpP4w-5">
          <mxGeometry relative="1" as="geometry">
            <Array as="points" />
          </mxGeometry>
        </mxCell>
        <mxCell id="kpe-mg8orcH3nQAzpP4w-15" value="同步音频数据" style="curved=1;startArrow=none;endArrow=open;endSize=12;exitX=0.4994891826923077;exitY=1;entryX=0.49910261824324326;entryY=0;rounded=0;" edge="1" parent="1" source="kpe-mg8orcH3nQAzpP4w-5" target="kpe-mg8orcH3nQAzpP4w-10">
          <mxGeometry relative="1" as="geometry">
            <Array as="points" />
          </mxGeometry>
        </mxCell>
        <mxCell id="kpe-mg8orcH3nQAzpP4w-16" value="启动、停止同步" style="curved=1;startArrow=none;endArrow=open;endSize=12;exitX=0.9989783653846154;exitY=0.15979697924767713;entryX=0.9989783653846154;entryY=0.8402030207523229;rounded=0;" edge="1" parent="1" source="kpe-mg8orcH3nQAzpP4w-5" target="kpe-mg8orcH3nQAzpP4w-5">
          <mxGeometry relative="1" as="geometry">
            <Array as="points">
              <mxPoint x="341" y="193" />
              <mxPoint x="356" y="193" />
              <mxPoint x="371" y="257" />
              <mxPoint x="356" y="320" />
              <mxPoint x="341" y="320" />
            </Array>
          </mxGeometry>
        </mxCell>
      </root>
    </mxGraphModel>
  </diagram>
</mxfile>
